<svg id="visual" viewBox="0 0 900 300" width="900" height="300" xmlns="http://www.w3.org/2000/svg" xmlns:xlink="http://www.w3.org/1999/xlink" version="1.1"><rect x="0" y="0" width="900" height="300" fill="#e5e7eb"></rect><path d="M0 209L21.5 210.5C43 212 86 215 128.8 211.5C171.7 208 214.3 198 257.2 198.8C300 199.7 343 211.3 385.8 217.8C428.7 224.3 471.3 225.7 514.2 218.8C557 212 600 197 642.8 193.5C685.7 190 728.3 198 771.2 197.5C814 197 857 188 878.5 183.5L900 179L900 301L878.5 301C857 301 814 301 771.2 301C728.3 301 685.7 301 642.8 301C600 301 557 301 514.2 301C471.3 301 428.7 301 385.8 301C343 301 300 301 257.2 301C214.3 301 171.7 301 128.8 301C86 301 43 301 21.5 301L0 301Z" fill="#e5e7eb"></path><path d="M0 203L21.5 203.3C43 203.7 86 204.3 128.8 206.5C171.7 208.7 214.3 212.3 257.2 214.3C300 216.3 343 216.7 385.8 215C428.7 213.3 471.3 209.7 514.2 209.3C557 209 600 212 642.8 213.8C685.7 215.7 728.3 216.3 771.2 216.5C814 216.7 857 216.3 878.5 216.2L900 216L900 301L878.5 301C857 301 814 301 771.2 301C728.3 301 685.7 301 642.8 301C600 301 557 301 514.2 301C471.3 301 428.7 301 385.8 301C343 301 300 301 257.2 301C214.3 301 171.7 301 128.8 301C86 301 43 301 21.5 301L0 301Z" fill="#eeeff2"></path><path d="M0 252L21.5 252.3C43 252.7 86 253.3 128.8 255.3C171.7 257.3 214.3 260.7 257.2 257.8C300 255 343 246 385.8 241.5C428.7 237 471.3 237 514.2 240C557 243 600 249 642.8 248C685.7 247 728.3 239 771.2 239.7C814 240.3 857 249.7 878.5 254.3L900 259L900 301L878.5 301C857 301 814 301 771.2 301C728.3 301 685.7 301 642.8 301C600 301 557 301 514.2 301C471.3 301 428.7 301 385.8 301C343 301 300 301 257.2 301C214.3 301 171.7 301 128.8 301C86 301 43 301 21.5 301L0 301Z" fill="#f6f7f8"></path><path d="M0 278L21.5 276.7C43 275.3 86 272.7 128.8 269C171.7 265.3 214.3 260.7 257.2 260.7C300 260.7 343 265.3 385.8 266.5C428.7 267.7 471.3 265.3 514.2 264.8C557 264.3 600 265.7 642.8 268.2C685.7 270.7 728.3 274.3 771.2 274.2C814 274 857 270 878.5 268L900 266L900 301L878.5 301C857 301 814 301 771.2 301C728.3 301 685.7 301 642.8 301C600 301 557 301 514.2 301C471.3 301 428.7 301 385.8 301C343 301 300 301 257.2 301C214.3 301 171.7 301 128.8 301C86 301 43 301 21.5 301L0 301Z" fill="#ffffff"></path></svg>