<svg id="visual" viewBox="0 0 900 300" width="900" height="300" xmlns="http://www.w3.org/2000/svg" xmlns:xlink="http://www.w3.org/1999/xlink" version="1.1"><rect x="0" y="0" width="900" height="300" fill="#001220"></rect><path d="M0 89L21.5 87.5C43 86 86 83 128.8 86.5C171.7 90 214.3 100 257.2 99.2C300 98.3 343 86.7 385.8 80.2C428.7 73.7 471.3 72.3 514.2 79.2C557 86 600 101 642.8 104.5C685.7 108 728.3 100 771.2 100.5C814 101 857 110 878.5 114.5L900 119L900 0L878.5 0C857 0 814 0 771.2 0C728.3 0 685.7 0 642.8 0C600 0 557 0 514.2 0C471.3 0 428.7 0 385.8 0C343 0 300 0 257.2 0C214.3 0 171.7 0 128.8 0C86 0 43 0 21.5 0L0 0Z" fill="#e5e7eb"></path><path d="M0 95L21.5 94.7C43 94.3 86 93.7 128.8 91.5C171.7 89.3 214.3 85.7 257.2 83.7C300 81.7 343 81.3 385.8 83C428.7 84.7 471.3 88.3 514.2 88.7C557 89 600 86 642.8 84.2C685.7 82.3 728.3 81.7 771.2 81.5C814 81.3 857 81.7 878.5 81.8L900 82L900 0L878.5 0C857 0 814 0 771.2 0C728.3 0 685.7 0 642.8 0C600 0 557 0 514.2 0C471.3 0 428.7 0 385.8 0C343 0 300 0 257.2 0C214.3 0 171.7 0 128.8 0C86 0 43 0 21.5 0L0 0Z" fill="#eeeff2"></path><path d="M0 46L21.5 45.7C43 45.3 86 44.7 128.8 42.7C171.7 40.7 214.3 37.3 257.2 40.2C300 43 343 52 385.8 56.5C428.7 61 471.3 61 514.2 58C557 55 600 49 642.8 50C685.7 51 728.3 59 771.2 58.3C814 57.7 857 48.3 878.5 43.7L900 39L900 0L878.5 0C857 0 814 0 771.2 0C728.3 0 685.7 0 642.8 0C600 0 557 0 514.2 0C471.3 0 428.7 0 385.8 0C343 0 300 0 257.2 0C214.3 0 171.7 0 128.8 0C86 0 43 0 21.5 0L0 0Z" fill="#f6f7f8"></path><path d="M0 20L21.5 21.3C43 22.7 86 25.3 128.8 29C171.7 32.7 214.3 37.3 257.2 37.3C300 37.3 343 32.7 385.8 31.5C428.7 30.3 471.3 32.7 514.2 33.2C557 33.7 600 32.3 642.8 29.8C685.7 27.3 728.3 23.7 771.2 23.8C814 24 857 28 878.5 30L900 32L900 0L878.5 0C857 0 814 0 771.2 0C728.3 0 685.7 0 642.8 0C600 0 557 0 514.2 0C471.3 0 428.7 0 385.8 0C343 0 300 0 257.2 0C214.3 0 171.7 0 128.8 0C86 0 43 0 21.5 0L0 0Z" fill="#ffffff"></path></svg>